<svg xmlns="http://www.w3.org/2000/svg" viewBox="0 0 34.9 34.9"><title>twitter</title><path d="M17.9,35.4A17.5,17.5,0,1,1,35.4,17.9,17.4,17.4,0,0,1,17.9,35.4Zm0-31.9A14.3,14.3,0,0,0,3.5,17.9,14.5,14.5,0,1,0,17.9,3.5Z" transform="translate(-0.6 -0.6)"/><path d="M22.6,10.5H13.4a2.9,2.9,0,0,0-2.9,2.9v9.2a2.9,2.9,0,0,0,2.9,2.9h9.2a2.9,2.9,0,0,0,2.9-2.9V13.4a2.9,2.9,0,0,0-2.9-2.9h0Zm0.8,1.7h0.3v2.5H21.2V12.3h2.2Zm-7.5,4.2a2.6,2.6,0,1,1-.5,1.5,2.6,2.6,0,0,1,.5-1.5h0ZM24,22.6A1.4,1.4,0,0,1,22.6,24H13.4A1.4,1.4,0,0,1,12,22.6V16.5h2.2a4.1,4.1,0,1,0,7.6,0H24v6.1h0Z" transform="translate(-0.6 -0.6)"/></svg>