<?xml version="1.0" encoding="utf-8"?>
<!-- Generator: Adobe Illustrator 19.2.0, SVG Export Plug-In . SVG Version: 6.00 Build 0)  -->
<svg version="1.1" id="Layer_1" xmlns:sketch="http://www.bohemiancoding.com/sketch/ns"
	 xmlns="http://www.w3.org/2000/svg" xmlns:xlink="http://www.w3.org/1999/xlink" x="0px" y="0px" viewBox="0 0 177 121"
	 style="enable-background:new 0 0 177 121;" xml:space="preserve">
<g id="Logo" transform="translate(99.500000, 23.657428)" sketch:type="MSShapeGroup">
	<path id="Fill-1" d="M-95.3-22.8c-2.3,0-4.2,1.9-4.2,4.2V92.2c0,2.3,1.9,4.2,4.2,4.2H72.1c2.3,0,4.2-1.9,4.2-4.2V-18.7
		c0-2.3-1.9-4.2-4.2-4.2H-95.3L-95.3-22.8z M72.5,88.3c0,2.3-1.9,4.2-4.2,4.2H-91.6c-2.3,0-4.2-1.9-4.2-4.2V-15
		c0-2.3,1.9-4.2,4.2-4.2H68.3c2.3,0,4.2,1.9,4.2,4.2V88.3L72.5,88.3z"/>
	<path id="Fill-2" d="M-86.4-8.3c-0.8,1.9-1.7,9.5-1.8,12.7c-0.1,3.2-0.3,9.4,0.4,14.6c0.6,5.1,2.6,9.1,6.5,9.1
		c3.6,0,4.7-1.6,6.1-3.1c1.3-1.5,1.4-5,1.4-6.3c0-1.4-0.4-6.5-0.5-6.9c-0.1-0.5,0.1-1.1,0.7-1.2c0.5-0.1,1.9-0.1,2.2,0
		c0.4,0.1,0.9,0,0.9,1.1c0,1.1,0.4,2.9,0.3,8.3c-0.2,5.5-1.8,7.1-2.5,8.3c-0.7,1.2-3.2,3.1-7.7,3.2c-4.4,0.1-8.9-2.3-9.8-5.8
		c-0.7-2.8-1.4-10.6-1.4-18.6s0.6-12,1.2-14.1c0.6-2.1,1.4-5.6,3.6-7.4c1.7-1.4,4.5-2.1,6.3-2c1.8,0.1,4.3,0.3,6.2,1.5
		c1.8,1.2,1.9,1.9,3.1,3.9c1.1,2.1,0.7,10.3,0.8,11.4c0.1,1-0.4,1.1-0.4,1.1s-1.1,0.2-2.2,0c-1.1-0.2-0.8-1.2-0.8-1.2s0-1.4-0.4-7.7
		c-0.3-6.3-6.5-5.6-6.5-5.6C-84.1-12.6-85.6-10.2-86.4-8.3"/>
	<path id="Fill-3" d="M-45.1-2.9c0,3.8,0.3,15.9,0.2,18.2c-0.1,2.2,0.4,13.8,0.4,14.9c0,1.2-0.8,1.4-1.3,1.5c-0.6,0.1-2,0-2,0
		s-1.2-0.3-0.9-1.7c0.2-0.9,0.2-2.9,0.2-5.4c-1.4,1.3-4.3,3.4-7.8,3.1c-4.6-0.5-8-2.3-9.5-6.4c-1.1-3.1-0.3-10.3-0.6-17.3
		c-0.3-7,0-18.3,0-18.3s-0.6-1.8,0.4-1.8c1-0.1,2.1-0.2,2.7,0c0.4,0.1,0.6,0.8,0.6,2.1c0.1,1.3,0,13.3-0.3,17.2
		c-0.3,4,0.1,13.1,0.6,14.6c0.7,2.8,2.6,6.1,6.3,6.1c3-0.1,5.9-1.6,7.4-3.7v-0.7c-0.1-2.2-0.5-14.3-0.2-17.9
		c0.3-3.5-0.3-14.6-0.3-15.9c0-1.4,0.1-1.6,0.6-1.7c0.4-0.1,1.8-0.3,2.9-0.1c1.2,0.2,0.6,1.8,0.6,1.8C-45-13.1-45.1-6.7-45.1-2.9"/>
	<path id="Fill-4" d="M-36.3-11.3c1.5-1.1,4.1-2.4,8.3-2.1c7.2,0.4,8,6.2,8.2,8.9c0.3,2.7,0.5,7.5,0.3,8.2c-0.3,0.7-0.3,1.1-1,1.1
		c-0.7,0-1.6,0.3-2.1,0c-0.5-0.3-0.6-0.5-0.7-1.6c-0.1-1.1,0.4-5.4,0-7.8c-0.2-1.3-0.7-4.5-3.8-5.1c-3.1-0.6-5.4,0.1-7.1,1
		c-0.9,0.5-1.7,1.4-2.2,2.3c0,2.6,0,5.4-0.1,7.9c-0.2,7.8-0.2,24.3,0.2,26.6c0.4,2.2-0.4,2.9-1,3.1c-0.6,0.3-2.2,0.3-2.2,0.3
		s-1.4,0.3-1.4-1.8c0-2,0-7.1,0.2-12.4c0.2-5.4-0.5-12.2,0.2-18.4c0.6-6.3,0-13.8,0-13.8s0.6-1.3,1.4-1.3c0.8,0,2.4-0.3,2.8,0.4
		C-36.3-15.8-36.3-13.9-36.3-11.3"/>
	<path id="Fill-5" d="M-11.5-11.3c1.5-1.1,4.1-2.4,8.3-2.1c7.2,0.4,8,6.2,8.2,8.9C5.2-1.8,5.4,3,5.2,3.8c-0.3,0.7-0.3,1.1-1,1.1
		c-0.7,0-1.6,0.3-2.1,0C1.7,4.6,1.5,4.4,1.5,3.3C1.4,2.2,1.8-2,1.5-4.4C1.2-5.7,0.7-9-2.3-9.6c-3.1-0.6-5.4,0.1-7.1,1
		c-0.9,0.5-1.7,1.4-2.2,2.3c0,2.6-0.1,5.4-0.1,7.9c-0.2,7.8-0.2,24.3,0.2,26.6c0.4,2.2-0.4,2.9-1,3.1c-0.6,0.3-2.2,0.3-2.2,0.3
		s-1.4,0.3-1.4-1.8c0-2,0-7.1,0.2-12.4c0.2-5.4-0.5-12.2,0.2-18.4c0.6-6.3,0-13.8,0-13.8s0.6-1.3,1.4-1.3c0.8,0,2.4-0.3,2.8,0.4
		C-11.4-15.8-11.4-13.9-11.5-11.3"/>
	<path id="Fill-6" d="M13.2,2.6c-0.1,6.5,0.1,13.8,0.4,16.1c0.3,2.3,0.1,5.1,2.8,7.4c2,1.6,4.8,1.5,6.9,0.6c2.2-0.9,3.2-5.9,3.5-8.5
		c0.3-2.7,0.1-8.2,0-8.7c0-0.5,0.6-0.8,0.9-0.8c0.2,0,0.9-0.1,1.6,0c0.5,0,0.9,0.3,1,0.8c0.2,0.6,0,8.6-0.2,10.9
		c-0.3,2.4-1.9,7.1-4.6,9.1c-2.8,2-9.1,2-12.2-0.6c-3-2.7-3.1-10.5-3.4-20.1C9.6-1,11-9.9,13.1-12.6c2.6-3.2,6-4,8.9-3.9
		c2.9,0.1,3.4,0.5,5.4,2c2.1,1.5,3.3,8.6,3.1,9.8c-0.2,1.3-0.9,1.1-1.9,1.1c-1.1,0-14.4,0.1-14.4,0.1S13.7-2.3,13.2,2.6L13.2,2.6z
		 M27-6.8c0-1-1.4-6.3-5.2-6.3c-4,0.1-5.7,2.1-6.4,3.4c-0.6,1.5-0.8,2.1-0.8,2.7C14.6-7,25.4-6.5,27-6.8L27-6.8z"/>
	<path id="Fill-7" d="M34.7,18c0-3.8-0.5-16.1-0.2-18.2c0-2.2-0.5-14.1-0.5-15.3c-0.1-1.1,0.9-1.2,1.4-1.1c0.5,0.1,2,0,2,0
		s1.2,0,0.9,1.3c-0.1,0.8-0.1,3.3-0.1,5.8c1.3-1.2,4.2-3.4,7.6-3.1c4.7,0.5,8,2.5,9.6,6.5c1.2,3.1,0.4,10.3,0.6,17.2
		c0.3,7.1,0,18.4,0,18.4s0.6,1.8-0.4,1.8c-0.9,0.1-2.1,0.1-2.7,0c-0.6-0.2-0.6-0.9-0.7-2.2c0-1.2,0-13.3,0.3-17.2
		c0.4-3.9-0.2-13-0.6-14.5c-0.7-2.7-2.6-6.1-6.3-6c-3,0.1-5.9,1.6-7.4,3.7v0.6c0,2.2,0.5,14.3,0.1,17.8c-0.2,3.6,0.2,14.7,0.4,16
		c0,1.3-0.2,1.6-0.6,1.7c-0.5,0.1-1.8,0.2-3,0.1c-1.2-0.2-0.5-1.8-0.5-1.8C34.5,28.1,34.7,21.8,34.7,18"/>
	<path id="Fill-8" d="M68.1-16.2c0.8,0,1.4,1.3,1.4,1.3s-0.2,2-0.3,4.6c0.8,0,1.6,0,1.9-0.1c2.5-0.3,6.2-0.1,6.2-0.1s0,0.3,0,0.9
		c0,0.6,0.2,1.6,0,1.7c-0.3,0.2,0.5,0.6-0.1,0.6c-0.4,0-5.3,0.3-8,0.3c0,1.9,0,3.9,0.3,5.7c0.6,6.2,0,13.1,0.2,18.3
		c0.2,5.3,0.2,10.4,0.2,12.4c0,2-1.4,1.8-1.4,1.8s-1.5,0-2-0.3c-0.6-0.2-1.4-0.9-1-3C66,25.7,66,9.1,65.8,1.5l-0.2-8.3
		c-2.8,0-6.7,0-7.2-0.1c-0.7-0.2-0.8-0.1-1-0.6c-0.3-0.5-0.2-2-0.2-2s-0.3-0.9,2.2-0.9c0,0,3.2,0.1,6.3,0.2c0-3.2,0-5.5,0-5.5
		C66-16.4,67.5-16.2,68.1-16.2"/>
	<path id="Fill-9" d="M-90.7,50.6l-4.7,0.3l0.2-4.2l5.2-0.2l0.9-3.6c-0.2,0.3,1.3-3.1,1.3-3.1c3-3.8,7-4.6,10.4-4.5
		c3.3,0.1,3.9,0.6,6.3,2.3c2.5,1.8,3.9,10,3.6,11.4c-0.2,1.5-1.1,1.3-2.2,1.3c-1.2,0-16.8,0.1-16.8,0.1s-0.5,1.3-1.1,7
		c-0.2,7.6,0.1,16.2,0.5,18.8c0.4,2.6,0.1,6,3.2,8.7c2.3,1.8,5.6,1.8,8.1,0.7c2.6-1,3.8-6.9,4.1-10c0.4-3.1,0.1-9.6,0-10.2
		c-0.1-0.5,0.7-0.9,1-0.9c0.3,0,1.1-0.1,1.8,0c0.6,0,1.1,0.3,1.2,0.9c0.2,0.7,0,10-0.2,12.7c-0.3,2.8-2.2,8.3-5.3,10.7
		c-3.2,2.3-10.7,2.3-14.2-0.8c-3.5-3.2-3.6-12.3-4-23.6c-0.1-3.6,0-7.2,0.2-10.4L-90.7,50.6L-90.7,50.6z M-71.6,46.6
		c0-1.2-1.6-7.4-6.1-7.3c-4.6,0.1-6.6,2.5-7.4,4c-0.7,1.7-0.9,2.4-0.9,3.1C-86,46.4-73.4,47-71.6,46.6L-71.6,46.6z"/>
	<path id="Fill-10" d="M-62.8,35.4c0.9-0.1,1.7,1.4,1.7,1.4s0.9,8.8,2.9,16c2,7.1,2.7,15.2,4.1,21.5c0.4,2.2,0.6,6.3,0.9,8.1
		c0.6-3.2,1.5-9,2.2-12.4c1.6-9,5.2-28.6,5.2-31.1c0.1-2.8,1-3.2,1.6-3.5c0.7-0.1,2.3,0.3,2.3,0.3s1.7,0,1.3,2.3
		c-0.4,2.2-1.5,8.2-2.7,14.4c-1.3,6.2-2.1,14.3-4,21.5c-2.1,7.1-2.8,15.8-2.8,15.8s-0.5,1.8-1.9,1.5c-0.2,0-1.1,0.1-1.4,0
		c-0.8,0.1-1.4,0.1-1.8,0c-0.7-0.2-1.8-0.8-1.8-3.4c0-2.7-3.4-22.2-5.2-31.1c-2.2-10.8-2-9.9-3.8-20.2
		C-65.5,35.7-63.5,35.6-62.8,35.4"/>
	<path id="Fill-11" d="M-35.2,57.6c-0.2,7.6,0.1,16.2,0.5,18.8c0.4,2.6,0.1,6,3.2,8.7c2.3,1.8,5.6,1.8,8.1,0.7c2.6-1,3.8-6.9,4.1-10
		c0.4-3.1,0.1-9.6,0-10.2c-0.1-0.5,0.7-0.9,1-0.9c0.3,0,1.1-0.1,1.8,0c0.6,0,1.1,0.3,1.2,0.9c0.2,0.7,0,10-0.2,12.7
		c-0.3,2.8-2.2,8.3-5.3,10.7c-3.2,2.3-10.7,2.3-14.2-0.8c-3.5-3.2-3.6-12.3-4-23.6c-0.4-11.3,1.3-21.7,3.8-24.8
		c3-3.8,7-4.6,10.4-4.5c3.3,0.1,3.9,0.6,6.3,2.3c2.5,1.8,3.9,10,3.6,11.4c-0.2,1.5-1.1,1.3-2.2,1.3c-1.2,0-16.8,0.1-16.8,0.1
		S-34.6,51.8-35.2,57.6L-35.2,57.6z M-19.1,46.6c0-1.2-1.6-7.4-6.1-7.3c-4.6,0.1-6.6,2.5-7.4,4c-0.7,1.7-0.9,2.4-0.9,3.1
		C-33.5,46.4-20.9,47-19.1,46.6L-19.1,46.6z"/>
	<path id="Fill-12" d="M-9.8,75.7c0-4.5-0.5-18.8-0.3-21.3c0.1-2.5-0.5-16.5-0.6-17.9c-0.1-1.3,1-1.3,1.6-1.3c0.6,0.2,2.3,0,2.3,0
		s1.3-0.1,1.1,1.5c-0.1,0.9-0.1,3.8-0.1,6.7C-4.4,42-1,39.5,3,39.8c5.5,0.6,9.4,2.9,11.2,7.6c1.3,3.6,0.4,12,0.7,20.2
		c0.4,8.3,0,21.6,0,21.6s0.7,2-0.5,2.1c-1.1,0.1-2.4,0.1-3.1,0c-0.6-0.2-0.7-1-0.8-2.5c-0.1-1.4,0-15.5,0.4-20.2
		c0.4-4.5-0.2-15.2-0.6-17c-0.8-3.1-3-7.1-7.4-7c-3.5,0.1-6.9,1.9-8.6,4.3v0.6c0.1,2.5,0.5,16.7,0.1,20.9
		c-0.2,4.2,0.2,17.2,0.4,18.8c0.1,1.5-0.2,1.8-0.6,1.9c-0.6,0.1-2.1,0.2-3.5,0.1c-1.3-0.2-0.5-2-0.5-2C-10.1,87.5-9.8,80.1-9.8,75.7
		"/>
	<path id="Fill-13" d="M30.9,35.6c0.9,0,1.6,1.5,1.6,1.5s-0.2,2.3-0.3,5.3c0.9,0,1.8-0.1,2.2-0.1c2.9-0.3,7.2-0.1,7.2-0.1
		s1.1,0.2,1.1,0.8c0,0.6,0.2,2,0,2.1c-0.3,0.2-0.5,0.9-1.2,0.9c-0.5,0-6.2,0.4-9.3,0.4c0,2.2,0.1,4.6,0.3,6.7
		c0.6,7.3,0,15.3,0.2,21.4c0.2,6.2,0.2,12.1,0.2,14.5c0,2.3-1.6,2.1-1.6,2.1s-1.7,0-2.3-0.3c-0.6-0.2-1.6-1.1-1.1-3.5
		c0.5-2.6,0.5-22,0.2-31l-0.2-9.7c-3.2-0.1-7.9-0.1-8.4-0.2c-0.8-0.2-0.9-0.1-1.2-0.6c-0.3-0.5-0.2-2.3-0.2-2.3s-0.3-1.1,2.5-1.1
		c0,0,3.7,0.1,7.3,0.2c-0.1-3.8-0.1-6.4-0.1-6.4C28.3,35.3,30.1,35.6,30.9,35.6"/>
	<path id="Fill-14" d="M69.2,54.7c-0.9,0-1.9,0.2-2.8,0c-0.9-0.4-1.4,0-1.2-1.9c0.1-1.8,0.9-6.3-0.6-9.9c-1.4-3.6-3.2-3.6-4.6-3.8
		c-1.4-0.1-8.1,0.9-8.6,5.6c-0.4,4.9,1.6,6.5,3.9,8.2c2.1,1.6,10.8,6.4,13,11.7c2,5.5,2.3,10.3,2.1,13.3c-0.2,3-1.8,9.3-5.6,11.5
		c-3.9,2.1-8.4,2.1-11.8,0.4c-3.2-1.6-5.3-5.7-5.5-7c-0.3-1.5-1.9-6-1.5-15.4c0-1.2,1.6-1.2,1.6-1.2l1.2-0.1c0,0,1.8-0.5,1.8,2.8
		c0,3.2,0.4,8.6,0.7,10.3c0.4,1.6,2.1,6.9,5.6,7.3c3.6,0.3,5.6-1.1,6.9-3.5c1.3-2.5,1.8-4.8,1.6-8.8c-0.1-3.8-1.3-7.9-3.2-9.8
		c-2-1.9-5.3-3.5-8.4-5.9c-3.1-2.3-6-4.6-6.3-7.7c-0.4-2.8-0.8-6.9,1.1-10.4c1.8-3.5,4.7-4.6,8.6-4.9c3.9-0.1,7.4,0,10,3
		c2.4,3.1,2.8,9.4,3,11.3c0.1,1.9-0.2,3-0.2,3S70.2,54.6,69.2,54.7"/>
</g>
</svg>
