<svg xmlns="http://www.w3.org/2000/svg" xmlns:xlink="http://www.w3.org/1999/xlink" viewBox="0 0 264.6 76.7"><defs><style>.a{fill:none;clip-rule:evenodd;}.b,.e,.f{fill-rule:evenodd;}.c{clip-path:url(#a);}.d{fill:#161616;}.e{fill:#c1452b;}.f{fill:#fff;}</style><clipPath id="a" transform="translate(0.1 4.3)"><path class="a" d="M98.6,29.4c-0.8-.1-0.6-1.5-0.6-1.5s-0.2-8.7,0-11.7,0.6-5,2.5-9.7,8.3-6,10.4-5.8,7.3,0.7,10.4,4.9,2.9,10.7,3.2,15.6c0.1,3-.3,15.3-0.3,22.7s0.3,21.2.6,22.4-0.8,1.1-1.4,1h-3c-0.6-.1-0.8-0.2-0.8-1.3a16.1,16.1,0,0,0,0-2.7s-10.8,0-14.1-.6-3.4,0-5.8-1.2a8.8,8.8,0,0,1-4.9-7.7,12.9,12.9,0,0,1,2.7-8.4c0.8-1,3.5-2.2,6.1-2.6s15.4-.6,15.4-0.6,0.3-5.3.3-9.5,0.7-16-.8-20.7-5.3-6.9-8.2-6.7A7.4,7.4,0,0,0,105,7.7c-1.4,1.4-2.4,6.7-2.5,9.7s0.5,8.5.7,10.5-0.4,1.3-.4,1.3a9.2,9.2,0,0,1-4.3.2h0ZM104.7,47c-2.5.6-5.4,1.3-5.3,5.8s4,5.1,6.3,5.3a103.5,103.5,0,0,0,13.2.1c-0.1-3.3.1-4.4,0.1-6.4L118.8,47s-11.6-.6-14.1,0h0Zm0,0"/></clipPath></defs><title>Imported Layers</title><path class="b" d="M55.5,8.7c2.2-1.9,4.7-2.2,7.6-2.2s6.1,1.5,8.2,4.3c1.4-1.3,5.6-4.7,10.4-4.3s8.5,2.8,9.2,8.5-0.3,20.3,0,28,0.4,20.3-.3,23.5a1.7,1.7,0,0,1-1.2,1.3H87.5c-0.8,0-2.6-.2-2.3-2.5s0.6-22.3.2-29.6S89,11.1,80.2,12.2c-5.5,1-6.5,4.3-6.5,6.8s-0.2,5.5-.2,8.6S72,31.3,72,31.3H69.5c-0.8-.3-2,0.2-2-5.8s1.3-13.3-6-13.3A7.3,7.3,0,0,0,55.3,16c0,3.2,0,6.6-.1,9.8-0.4,10.9-.7,33.9-0.3,36.9s-0.1,4.3-.6,4.6a13,13,0,0,1-3.1.4s-1.8.3-1.8-2.5,0-9.9.2-17.4-0.5-16.8.4-25.6a172.3,172.3,0,0,0,0-19.2s0.6-2,1.7-2,3-.3,3.6.6V8.7" transform="translate(0.1 4.3)"/><g class="c"><rect class="d" x="89.7" width="40.1" height="76.66"/></g><path class="b" d="M132.4,0.8c1.1-.1,2,1.7,2,1.7a147.5,147.5,0,0,0,3.4,19.1c2.4,8.5,3.2,18.2,4.9,25.6,0.4,2.6.7,7.5,1.1,9.7,0.8-3.9,1.8-10.8,2.7-14.9,2-10.8,6.2-34.1,6.2-37.1s1.2-3.9,2-4.2a10.6,10.6,0,0,1,2.8.3s2,0,1.5,2.7-1.7,9.8-3.2,17.2-2.5,17.1-4.8,25.6a113.4,113.4,0,0,0-3.3,18.9s-0.6,2.1-2.2,1.8h-3.9c-0.8-.3-2.1-1-2.1-4.1s-4.1-26.5-6.2-37.2S128.9,2,128.9,2s2.6-1,3.5-1.3" transform="translate(0.1 4.3)"/><path class="b" d="M167.4,27.2a208.9,208.9,0,0,0,.6,22.5c0.4,3.2.1,7.1,3.9,10.4s6.7,2.1,9.7.8,4.5-8.2,4.9-11.9a84.9,84.9,0,0,0,0-12.2,1.3,1.3,0,0,1,1.2-1.1,10.9,10.9,0,0,1,2.2,0,1.3,1.3,0,0,1,1.5,1.1c0.2,0.8,0,12-.3,15.2s-2.6,10-6.4,12.8-12.8,2.8-17-.9-4.3-14.7-4.8-28.2,1.5-25.9,4.5-29.6A14.6,14.6,0,0,1,179.7.7c4,0.1,4.7.7,7.6,2.8s4.6,12,4.3,13.7-1.3,1.5-2.7,1.5H168.7s-0.6,1.5-1.3,8.4h0Zm19.3-13.1c0-1.4-1.9-8.8-7.3-8.8s-7.9,2.9-8.9,4.8a11.8,11.8,0,0,0-1.1,3.7s15.1,0.7,17.3.3h0Zm0,0" transform="translate(0.1 4.3)"/><path class="b" d="M199,48.9c0-5.3-.6-22.5-0.4-25.5S198,3.6,197.9,2s1.2-1.6,1.9-1.5a12.1,12.1,0,0,0,2.8,0s1.6-.1,1.3,1.8-0.1,4.6-.1,8.1c1.8-1.7,5.8-4.7,10.6-4.3,6.5,0.7,11.2,3.4,13.4,9s0.5,14.4.8,24.1,0,25.8,0,25.8,0.8,2.5-.6,2.5a21.9,21.9,0,0,1-3.7,0c-0.8-.2-0.8-1.2-0.9-3s0-18.6.4-24.1A123.5,123.5,0,0,0,223,20c-1-3.7-3.6-8.5-8.8-8.4s-8.3,2.2-10.3,5.2v0.8c0.1,3,.6,20,0.1,24.9s0.3,20.5.5,22.4-0.3,2.2-.8,2.3a17.9,17.9,0,0,1-4.1.1c-1.6-.3-0.6-2.5-0.6-2.5-0.3-1.9,0-10.8,0-16" transform="translate(0.1 4.3)"/><path class="b" d="M263,23.8a18.3,18.3,0,0,1-3.4,0c-1.1-.4-1.7,0-1.5-2.2s1.1-7.5-.7-11.8-3.8-4.3-5.5-4.6-9.7,1.1-10.3,6.7,1.9,7.8,4.7,9.7,12.9,7.6,15.6,14a39.3,39.3,0,0,1,2.5,15.8c-0.3,3.6-2.1,11.1-6.7,13.8a15.4,15.4,0,0,1-14.1.4c-3.9-1.9-6.3-6.8-6.6-8.3s-2.2-7.1-1.8-18.4c0-1.5,1.9-1.4,1.9-1.4h1.5s2.2-.6,2.2,3.3a91.9,91.9,0,0,0,.8,12.3c0.4,1.9,2.5,8.2,6.7,8.7s6.7-1.3,8.3-4.2,2.2-5.7,2-10.5-1.6-9.5-3.9-11.7-6.4-4.2-10-7-7.2-5.5-7.6-9.2-1-8.3,1.3-12.4S244,1.2,248.6.8s8.9,0,11.9,3.6,3.4,11.3,3.6,13.5a13.2,13.2,0,0,1-.3,3.6s0.3,2.2-.9,2.2" transform="translate(0.1 4.3)"/><path class="e" d="M44.4,63.3a4.3,4.3,0,0,1-4.3,4.3H4.8A4.3,4.3,0,0,1,.5,63.3V4.7A4.3,4.3,0,0,1,4.8.3H40.1a4.3,4.3,0,0,1,4.3,4.3V63.3" transform="translate(0.1 4.3)"/><path class="f" d="M18.4,40.7a115.3,115.3,0,0,0,13.4-.4c1.9-.3,4.3-0.1,6.2-2.5a6.7,6.7,0,0,0,.5-6.2c-0.7-2-4.9-2.9-7.1-3.2a47.3,47.3,0,0,0-7.3,0,0.8,0.8,0,0,1-.7-0.8,7.7,7.7,0,0,1,0-1.4,0.9,0.9,0,0,1,.7-0.9c0.5-.1,7.1,0,9.1.2s5.9,1.7,7.6,4.1,1.7,8.2-.5,11-8.8,2.8-16.8,3.1S8,42.7,5.8,40.8a9.7,9.7,0,0,1-3.2-8c0-2.6.4-3,1.7-4.9s7.1-3,8.2-2.7,0.9,0.9.9,1.7,0.1,12.9.1,12.9a27.2,27.2,0,0,0,5,.9h0ZM10.6,28.3c-0.8,0-5.3,1.2-5.2,4.7S7.1,38,8.2,38.7a6.8,6.8,0,0,0,2.2.7s0.4-9.7.2-11.1h0Zm0,0" transform="translate(0.1 4.3)"/><path class="f" d="M28.8,21.4c-3.2,0-13.4.4-15.2,0.2L0.8,22a0.9,0.9,0,0,1-.9-1.1,7.2,7.2,0,0,0,0-1.7A0.8,0.8,0,0,1,1,18.5H5.8a8.8,8.8,0,0,1-2.6-6.3c0.4-3.9,2-6.7,5.4-8S17.2,4,23,3.8s15.4,0,15.4,0,1.5-.5,1.5.3a13.1,13.1,0,0,1,0,2.2c-0.1.5-.7,0.5-1.8,0.5S27,6.9,23.7,6.6a73.8,73.8,0,0,0-12.1.5c-2.2.6-5.1,2.1-5,5.3a8,8,0,0,0,3.1,6.1h0.5c1.8,0,11.9-.4,14.9-0.1s12.2-.2,13.4-0.3,1.3,0.2,1.4.5a10.7,10.7,0,0,1,.1,2.5c-0.2,1-1.5.4-1.5,0.4s-6.4,0-9.6,0" transform="translate(0.1 4.3)"/><path class="f" d="M6.7,51.7c0,1.9.1,4.4,0.1,5.6s-0.1,4.8-.1,6a0.9,0.9,0,0,1-.9,1.1,2.4,2.4,0,0,1-1,0,1,1,0,0,1-.9-0.9,34.7,34.7,0,0,1,0-4.9c0.2-2.3,0-10.6,0-11.5a1.1,1.1,0,0,1,1.4-1,3.3,3.3,0,0,1,1.2.3A73.6,73.6,0,0,0,15.7,51c4.4,1.7,8.9,4.4,12.5,6l7.4,3.5a8,8,0,0,0,.1-1.3c0-1.9-.1-4.4-0.1-5.6s0.2-4.9.2-6a0.9,0.9,0,0,1,.9-1.1,2.4,2.4,0,0,1,1.1,0,0.8,0.8,0,0,1,.9.9,26.3,26.3,0,0,1,0,5c-0.1,2.3.1,10.6,0,11.5a1.3,1.3,0,0,1-1.5,1.3,6,6,0,0,1-2.7-1.2c-1.4-1.1-12.5-6.5-17.9-9L6.8,50.2a10.4,10.4,0,0,0-.1,1.5" transform="translate(0.1 4.3)"/></svg>