<?xml version="1.0" encoding="utf-8"?>
<!-- Generator: Adobe Illustrator 19.2.0, SVG Export Plug-In . SVG Version: 6.00 Build 0)  -->
<svg version="1.1" id="Layer_1" xmlns="http://www.w3.org/2000/svg" xmlns:xlink="http://www.w3.org/1999/xlink" x="0px" y="0px"
	 viewBox="0 0 36 36" style="enable-background:new 0 0 36 36;" xml:space="preserve">
<style type="text/css">
	.st0{clip-path:url(#SVGID_1_);}
</style>
<g>
	<g>
		<path d="M18,35.5C8.4,35.5,0.6,27.7,0.6,18C0.6,8.4,8.4,0.6,18,0.6S35.5,8.4,35.5,18C35.5,27.7,27.7,35.5,18,35.5z M18,3.6
			C10,3.6,3.6,10,3.6,18c0,8,6.5,14.5,14.5,14.5S32.5,26,32.5,18C32.5,10,26,3.6,18,3.6z"/>
	</g>
</g>
<g>
	<defs>
		<path id="SVGID_3_" d="M10,15.1c0,2.1,0.8,3.9,2.4,4.6c0.2,0.1,0.4,0,0.5-0.1c0,0,0-0.1,0.1-0.2l0.2-1c0.1-0.3,0-0.5-0.2-0.7
			c-0.5-0.6-0.8-1.5-0.8-2.3c-0.1-3.1,2.3-5.7,5.4-5.8c0.2,0,0.3,0,0.5,0c3.2,0,4.9,2,4.9,4.6s-1.4,6.4-3.7,6.4
			c-1,0.1-1.9-0.6-2-1.6c0-0.2,0-0.5,0.1-0.7c0.5-1.4,0.8-2.8,1-4.2c0.1-0.9-0.5-1.7-1.4-1.8c-0.1,0-0.1,0-0.2,0
			c-1.3,0-2.3,1.3-2.3,3.1c0,0.7,0.1,1.3,0.4,1.9l-1.5,6.5c-0.3,1.5-0.3,3,0,4.5c0,0.1,0.2,0.2,0.3,0.1c0,0,0,0,0,0
			c0.9-1.2,1.6-2.5,2.1-3.9l0.8-3.3c0.7,1,1.8,1.5,3,1.4c3.8,0,6.4-3.5,6.4-8.2s-3-6.8-7.5-6.8S10,11.7,10,15.1L10,15.1z"/>
	</defs>
	<clipPath id="SVGID_1_">
		<use xlink:href="#SVGID_3_"  style="overflow:visible;"/>
	</clipPath>
	<g class="st0">
		<rect x="5" y="2.6" width="26" height="30.8"/>
	</g>
</g>
</svg>
