<?xml version="1.0" encoding="UTF-8" standalone="no"?>
<svg width="36px" height="36px" viewBox="0 0 36 36" version="1.1" xmlns="http://www.w3.org/2000/svg" xmlns:xlink="http://www.w3.org/1999/xlink" xmlns:sketch="http://www.bohemiancoding.com/sketch/ns">
    <!-- Generator: Sketch 3.4.4 (17249) - http://www.bohemiancoding.com/sketch -->
    <title>pinterest-light copy 2</title>
    <desc>Created with Sketch.</desc>
    <defs></defs>
    <g id="Page-1" stroke="none" stroke-width="1" fill="none" fill-rule="evenodd" sketch:type="MSPage">
        <g id="design-three-desktop-v5" sketch:type="MSArtboardGroup" transform="translate(-1364.000000, -819.000000)">
            <g id="Header-" sketch:type="MSLayerGroup">
                <g id="Nav" transform="translate(0.000000, 801.000000)" sketch:type="MSShapeGroup">
                    <g id="pinterest-light-copy-2" transform="translate(1364.765469, 18.621107)">
                        <rect id="Rectangle" x="0" y="0" width="35.2" height="35.2"></rect>
                        <circle id="Oval" stroke="#000000" stroke-width="2" cx="17.6" cy="17.6" r="17.6"></circle>
                        <path d="M9.6,16.2633453 C9.6,18.318555 10.3735518,20.146648 12.0315356,20.8279983 C12.303518,20.9395874 12.546802,20.8319367 12.6257226,20.5286768 C12.6805104,20.319283 12.8103053,19.7902191 12.8677021,19.5696664 C12.9472749,19.2703449 12.9166198,19.1653198 12.6968163,18.9040699 C12.2193796,18.336278 11.9134809,17.6017588 11.9134809,16.5606976 C11.9134809,13.5418827 14.1578248,10.8387995 17.7588195,10.8387995 C20.9469488,10.8387995 22.6982023,12.7994866 22.6982023,15.417237 C22.6982023,18.8620599 21.1830582,21.769942 18.9348009,21.769942 C17.6922914,21.769942 16.7628552,20.7361013 17.060927,19.4685798 C17.4177001,17.9549057 18.1084179,16.3211091 18.1084179,15.2288482 C18.1084179,14.2508021 17.5866292,13.4355448 16.5078309,13.4355448 C15.2385798,13.4355448 14.2178305,14.7568917 14.2178305,16.5272209 C14.2178305,17.6555842 14.5967796,18.4176725 14.5967796,18.4176725 C14.5967796,18.4176725 13.2975256,23.9584023 13.0698952,24.9285716 C12.6165913,26.8610332 13.0020627,29.2293489 13.0346745,29.468281 C13.0535893,29.6100649 13.2342587,29.644198 13.3164404,29.5372037 C13.4338429,29.3829481 14.9450736,27.5043118 15.46034,25.6276448 C15.6051364,25.0959553 16.2945498,22.3436416 16.2945498,22.3436416 C16.7074151,23.1352682 17.9127471,23.8323722 19.1943908,23.8323722 C23.0112755,23.8323722 25.6,20.3310983 25.6,15.6443537 C25.6,12.1004134 22.617325,8.8 18.0842852,8.8 C12.444401,8.8 9.6,12.8697222 9.6,16.2633453 Z" id="Shape" fill="#000000"></path>
                    </g>
                </g>
            </g>
        </g>
    </g>
</svg>