<svg xmlns="http://www.w3.org/2000/svg" viewBox="0 0 34.9 34.9"><title>twitter</title><path d="M17.9,35.4A17.5,17.5,0,1,1,35.4,17.9,17.4,17.4,0,0,1,17.9,35.4Zm0-31.9A14.3,14.3,0,0,0,3.5,17.9,14.5,14.5,0,1,0,17.9,3.5Z" transform="translate(-0.6 -0.6)"/><path d="M23.9,14.2a3.4,3.4,0,0,0,1.4-1.9,6.2,6.2,0,0,1-2,.8A3.1,3.1,0,0,0,20.9,12a3.3,3.3,0,0,0-3.2,3.4,3.5,3.5,0,0,0,.1.8,8.9,8.9,0,0,1-6.6-3.5,3.5,3.5,0,0,0-.4,1.7,3.4,3.4,0,0,0,1.4,2.8,3.1,3.1,0,0,1-1.5-.4h0a3.3,3.3,0,0,0,2.6,3.3H11.9a3.2,3.2,0,0,0,3,2.3,6.2,6.2,0,0,1-4,1.4H10.1A8.7,8.7,0,0,0,15,25.4c5.9,0,9.1-5.1,9.1-9.6,0-.1,0-0.3,0-0.4a6.7,6.7,0,0,0,1.6-1.7A6.1,6.1,0,0,1,23.9,14.2Z" transform="translate(-0.6 -0.6)"/></svg>